General
Complete name                            : ../.././Samples/129_VC-1_8bits_1280x720_29_970fps.wmv
Format                                   : Windows Media
File size                                : 13.0 MiB
Duration                                 : 15 s 149 ms
Overall bit rate mode                    : Constant
Overall bit rate                         : 7 217 kb/s
Maximum Overall bit rate                 : 6 183 kb/s
Movie name                               : Wildlife in HD
Encoded date                             : UTC 2008-08-25 21:11:16.400
Copyright                                : © 2008 Microsoft Corporation
Comment                                  : Footage: Small World Productions, Inc; Tourism New Zealand | Producer: Gary F. Spradling | Music: Steve Ball
SfOriginalFPS                            : 299700

Video
ID                                       : 2
Format                                   : VC-1
Format profile                           : Advanced@L3
Codec ID                                 : WVC1
Codec ID/Hint                            : Microsoft
Description of the codec                 : Windows Media Video 9 Advanced Profile
Duration                                 : 15 s 148 ms
Bit rate mode                            : Constant
Bit rate                                 : 5 942 kb/s
Width                                    : 1 280 pixels
Height                                   : 720 pixels
Display aspect ratio                     : 16:9
Frame rate                               : 29.970 (29970/1000) FPS
Color space                              : YUV
Chroma subsampling                       : 4:2:0
Bit depth                                : 8 bits
Scan type                                : Progressive
Compression mode                         : Lossy
Bits/(Pixel*Frame)                       : 0.215
Stream size                              : 10.7 MiB (82%)
Language                                 : English (United States)

Audio
ID                                       : 1
Format                                   : WMA
Format version                           : Version 2
Codec ID                                 : 161
Codec ID/Info                            : Windows Media Audio
Description of the codec                 : Windows Media Audio 9.2 - 192 kbps, 44 kHz, stereo (A/V) 1-pass CBR
Duration                                 : 15 s 149 ms
Bit rate mode                            : Constant
Bit rate                                 : 192 kb/s
Channel(s)                               : 2 channels
Sampling rate                            : 44.1 kHz
Bit depth                                : 16 bits
Stream size                              : 355 KiB (3%)
Language                                 : English (United States)


General
Complete name                            : ../.././Samples/129_VC-1_8bits_1280x720_29_970fps.wmv
Format                                   : Windows Media
File size                                : 13.0 MiB
Duration                                 : 15 s 149 ms
Overall bit rate mode                    : Constant
Overall bit rate                         : 7 217 kb/s
Maximum Overall bit rate                 : 6 183 kb/s
Movie name                               : Wildlife in HD
Encoded date                             : UTC 2008-08-25 21:11:16.400
Copyright                                : © 2008 Microsoft Corporation
Comment                                  : Footage: Small World Productions, Inc; Tourism New Zealand | Producer: Gary F. Spradling | Music: Steve Ball
SfOriginalFPS                            : 299700

Video
ID                                       : 2
Format                                   : VC-1
Format profile                           : Advanced@L3
Codec ID                                 : WVC1
Codec ID/Hint                            : Microsoft
Description of the codec                 : Windows Media Video 9 Advanced Profile
Duration                                 : 15 s 148 ms
Bit rate mode                            : Constant
Bit rate                                 : 5 942 kb/s
Width                                    : 1 280 pixels
Height                                   : 720 pixels
Display aspect ratio                     : 16:9
Frame rate                               : 29.970 (29970/1000) FPS
Color space                              : YUV
Chroma subsampling                       : 4:2:0
Bit depth                                : 8 bits
Scan type                                : Progressive
Compression mode                         : Lossy
Bits/(Pixel*Frame)                       : 0.215
Stream size                              : 10.7 MiB (82%)
Language                                 : English (United States)

Audio
ID                                       : 1
Format                                   : WMA
Format version                           : Version 2
Codec ID                                 : 161
Codec ID/Info                            : Windows Media Audio
Description of the codec                 : Windows Media Audio 9.2 - 192 kbps, 44 kHz, stereo (A/V) 1-pass CBR
Duration                                 : 15 s 149 ms
Bit rate mode                            : Constant
Bit rate                                 : 192 kb/s
Channel(s)                               : 2 channels
Sampling rate                            : 44.1 kHz
Bit depth                                : 16 bits
Stream size                              : 355 KiB (3%)
Language                                 : English (United States)


General
Complete name                            : ../.././Samples/129_VC-1_8bits_1280x720_29_970fps.wmv
Format                                   : Windows Media
File size                                : 13.0 MiB
Duration                                 : 15 s 149 ms
Overall bit rate mode                    : Constant
Overall bit rate                         : 7 217 kb/s
Maximum Overall bit rate                 : 6 183 kb/s
Movie name                               : Wildlife in HD
Encoded date                             : UTC 2008-08-25 21:11:16.400
Copyright                                : © 2008 Microsoft Corporation
Comment                                  : Footage: Small World Productions, Inc; Tourism New Zealand | Producer: Gary F. Spradling | Music: Steve Ball
SfOriginalFPS                            : 299700

Video
ID                                       : 2
Format                                   : VC-1
Format profile                           : Advanced@L3
Codec ID                                 : WVC1
Codec ID/Hint                            : Microsoft
Description of the codec                 : Windows Media Video 9 Advanced Profile
Duration                                 : 15 s 148 ms
Bit rate mode                            : Constant
Bit rate                                 : 5 942 kb/s
Width                                    : 1 280 pixels
Height                                   : 720 pixels
Display aspect ratio                     : 16:9
Frame rate                               : 29.970 (29970/1000) FPS
Color space                              : YUV
Chroma subsampling                       : 4:2:0
Bit depth                                : 8 bits
Scan type                                : Progressive
Compression mode                         : Lossy
Bits/(Pixel*Frame)                       : 0.215
Stream size                              : 10.7 MiB (82%)
Language                                 : English (United States)

Audio
ID                                       : 1
Format                                   : WMA
Format version                           : Version 2
Codec ID                                 : 161
Codec ID/Info                            : Windows Media Audio
Description of the codec                 : Windows Media Audio 9.2 - 192 kbps, 44 kHz, stereo (A/V) 1-pass CBR
Duration                                 : 15 s 149 ms
Bit rate mode                            : Constant
Bit rate                                 : 192 kb/s
Channel(s)                               : 2 channels
Sampling rate                            : 44.1 kHz
Bit depth                                : 16 bits
Stream size                              : 355 KiB (3%)
Language                                 : English (United States)


General
Complete name                            : ../.././Samples/129_VC-1_8bits_1280x720_29_970fps.wmv
Format                                   : Windows Media
File size                                : 13.0 MiB
Duration                                 : 15 s 149 ms
Overall bit rate mode                    : Constant
Overall bit rate                         : 7 217 kb/s
Maximum Overall bit rate                 : 6 183 kb/s
Movie name                               : Wildlife in HD
Encoded date                             : UTC 2008-08-25 21:11:16.400
Copyright                                : © 2008 Microsoft Corporation
Comment                                  : Footage: Small World Productions, Inc; Tourism New Zealand | Producer: Gary F. Spradling | Music: Steve Ball
SfOriginalFPS                            : 299700

Video
ID                                       : 2
Format                                   : VC-1
Format profile                           : Advanced@L3
Codec ID                                 : WVC1
Codec ID/Hint                            : Microsoft
Description of the codec                 : Windows Media Video 9 Advanced Profile
Duration                                 : 15 s 148 ms
Bit rate mode                            : Constant
Bit rate                                 : 5 942 kb/s
Width                                    : 1 280 pixels
Height                                   : 720 pixels
Display aspect ratio                     : 16:9
Frame rate                               : 29.970 (29970/1000) FPS
Color space                              : YUV
Chroma subsampling                       : 4:2:0
Bit depth                                : 8 bits
Scan type                                : Progressive
Compression mode                         : Lossy
Bits/(Pixel*Frame)                       : 0.215
Stream size                              : 10.7 MiB (82%)
Language                                 : English (United States)

Audio
ID                                       : 1
Format                                   : WMA
Format version                           : Version 2
Codec ID                                 : 161
Codec ID/Info                            : Windows Media Audio
Description of the codec                 : Windows Media Audio 9.2 - 192 kbps, 44 kHz, stereo (A/V) 1-pass CBR
Duration                                 : 15 s 149 ms
Bit rate mode                            : Constant
Bit rate                                 : 192 kb/s
Channel(s)                               : 2 channels
Sampling rate                            : 44.1 kHz
Bit depth                                : 16 bits
Stream size                              : 355 KiB (3%)
Language                                 : English (United States)


General
Complete name                            : ../.././Samples/129_VC-1_8bits_1280x720_29_970fps.wmv
Format                                   : Windows Media
File size                                : 13.0 MiB
Duration                                 : 15 s 149 ms
Overall bit rate mode                    : Constant
Overall bit rate                         : 7 217 kb/s
Maximum Overall bit rate                 : 6 183 kb/s
Movie name                               : Wildlife in HD
Encoded date                             : UTC 2008-08-25 21:11:16.400
Copyright                                : © 2008 Microsoft Corporation
Comment                                  : Footage: Small World Productions, Inc; Tourism New Zealand | Producer: Gary F. Spradling | Music: Steve Ball
SfOriginalFPS                            : 299700

Video
ID                                       : 2
Format                                   : VC-1
Format profile                           : Advanced@L3
Codec ID                                 : WVC1
Codec ID/Hint                            : Microsoft
Description of the codec                 : Windows Media Video 9 Advanced Profile
Duration                                 : 15 s 148 ms
Bit rate mode                            : Constant
Bit rate                                 : 5 942 kb/s
Width                                    : 1 280 pixels
Height                                   : 720 pixels
Display aspect ratio                     : 16:9
Frame rate                               : 29.970 (29970/1000) FPS
Color space                              : YUV
Chroma subsampling                       : 4:2:0
Bit depth                                : 8 bits
Scan type                                : Progressive
Compression mode                         : Lossy
Bits/(Pixel*Frame)                       : 0.215
Stream size                              : 10.7 MiB (82%)
Language                                 : English (United States)

Audio
ID                                       : 1
Format                                   : WMA
Format version                           : Version 2
Codec ID                                 : 161
Codec ID/Info                            : Windows Media Audio
Description of the codec                 : Windows Media Audio 9.2 - 192 kbps, 44 kHz, stereo (A/V) 1-pass CBR
Duration                                 : 15 s 149 ms
Bit rate mode                            : Constant
Bit rate                                 : 192 kb/s
Channel(s)                               : 2 channels
Sampling rate                            : 44.1 kHz
Bit depth                                : 16 bits
Stream size                              : 355 KiB (3%)
Language                                 : English (United States)


General
Complete name                            : ../.././Samples/129_VC-1_8bits_1280x720_29_970fps.wmv
Format                                   : Windows Media
File size                                : 13.0 MiB
Duration                                 : 15 s 149 ms
Overall bit rate mode                    : Constant
Overall bit rate                         : 7 217 kb/s
Maximum Overall bit rate                 : 6 183 kb/s
Movie name                               : Wildlife in HD
Encoded date                             : UTC 2008-08-25 21:11:16.400
Copyright                                : © 2008 Microsoft Corporation
Comment                                  : Footage: Small World Productions, Inc; Tourism New Zealand | Producer: Gary F. Spradling | Music: Steve Ball
SfOriginalFPS                            : 299700

Video
ID                                       : 2
Format                                   : VC-1
Format profile                           : Advanced@L3
Codec ID                                 : WVC1
Codec ID/Hint                            : Microsoft
Description of the codec                 : Windows Media Video 9 Advanced Profile
Duration                                 : 15 s 148 ms
Bit rate mode                            : Constant
Bit rate                                 : 5 942 kb/s
Width                                    : 1 280 pixels
Height                                   : 720 pixels
Display aspect ratio                     : 16:9
Frame rate                               : 29.970 (29970/1000) FPS
Color space                              : YUV
Chroma subsampling                       : 4:2:0
Bit depth                                : 8 bits
Scan type                                : Progressive
Compression mode                         : Lossy
Bits/(Pixel*Frame)                       : 0.215
Stream size                              : 10.7 MiB (82%)
Language                                 : English (United States)

Audio
ID                                       : 1
Format                                   : WMA
Format version                           : Version 2
Codec ID                                 : 161
Codec ID/Info                            : Windows Media Audio
Description of the codec                 : Windows Media Audio 9.2 - 192 kbps, 44 kHz, stereo (A/V) 1-pass CBR
Duration                                 : 15 s 149 ms
Bit rate mode                            : Constant
Bit rate                                 : 192 kb/s
Channel(s)                               : 2 channels
Sampling rate                            : 44.1 kHz
Bit depth                                : 16 bits
Stream size                              : 355 KiB (3%)
Language                                 : English (United States)


